<svg width="127" height="141" viewBox="0 0 127 141" fill="none" xmlns="http://www.w3.org/2000/svg">
<rect x="18" width="91" height="36" rx="18" fill="#2C2C2C"/>
<path d="M18 59C18 53.4772 22.4772 49 28 49H99C104.523 49 109 53.4772 109 59V98H18V59Z" fill="#2C2C2C"/>
<path d="M20.5938 121.047V122.219C20.5938 123.938 20.3646 125.484 19.9062 126.859C19.4479 128.224 18.7969 129.385 17.9531 130.344C17.1094 131.302 16.1042 132.036 14.9375 132.547C13.7708 133.057 12.474 133.312 11.0469 133.312C9.64062 133.312 8.34896 133.057 7.17188 132.547C6.00521 132.036 4.99479 131.302 4.14062 130.344C3.28646 129.385 2.625 128.224 2.15625 126.859C1.6875 125.484 1.45312 123.938 1.45312 122.219V121.047C1.45312 119.318 1.6875 117.771 2.15625 116.406C2.625 115.042 3.28125 113.88 4.125 112.922C4.96875 111.953 5.97396 111.214 7.14062 110.703C8.31771 110.193 9.60938 109.938 11.0156 109.938C12.4427 109.938 13.7396 110.193 14.9062 110.703C16.0729 111.214 17.0781 111.953 17.9219 112.922C18.776 113.88 19.4323 115.042 19.8906 116.406C20.3594 117.771 20.5938 119.318 20.5938 121.047ZM16.25 122.219V121.016C16.25 119.776 16.1354 118.688 15.9062 117.75C15.6771 116.802 15.3385 116.005 14.8906 115.359C14.4427 114.714 13.8906 114.229 13.2344 113.906C12.5781 113.573 11.8385 113.406 11.0156 113.406C10.1823 113.406 9.44271 113.573 8.79688 113.906C8.16146 114.229 7.61979 114.714 7.17188 115.359C6.72396 116.005 6.38021 116.802 6.14062 117.75C5.91146 118.688 5.79688 119.776 5.79688 121.016V122.219C5.79688 123.448 5.91146 124.536 6.14062 125.484C6.38021 126.432 6.72396 127.234 7.17188 127.891C7.63021 128.536 8.18229 129.026 8.82812 129.359C9.47396 129.693 10.2135 129.859 11.0469 129.859C11.8802 129.859 12.6198 129.693 13.2656 129.359C13.9115 129.026 14.4531 128.536 14.8906 127.891C15.3385 127.234 15.6771 126.432 15.9062 125.484C16.1354 124.536 16.25 123.448 16.25 122.219ZM27.9688 119.703V133H23.8438V116.094H27.7188L27.9688 119.703ZM27.3125 123.938H26.0938C26.1042 122.708 26.2708 121.594 26.5938 120.594C26.9167 119.594 27.3698 118.734 27.9531 118.016C28.5469 117.297 29.25 116.745 30.0625 116.359C30.875 115.974 31.7812 115.781 32.7812 115.781C33.5938 115.781 34.3281 115.896 34.9844 116.125C35.6406 116.354 36.2031 116.719 36.6719 117.219C37.151 117.719 37.5156 118.375 37.7656 119.188C38.026 119.99 38.1562 120.979 38.1562 122.156V133H34V122.125C34 121.354 33.8854 120.745 33.6562 120.297C33.4375 119.849 33.1146 119.531 32.6875 119.344C32.2708 119.156 31.7552 119.062 31.1406 119.062C30.5052 119.062 29.9479 119.193 29.4688 119.453C29 119.703 28.6042 120.052 28.2812 120.5C27.9688 120.948 27.7292 121.464 27.5625 122.047C27.3958 122.63 27.3125 123.26 27.3125 123.938ZM49.3906 133.312C48.1094 133.312 46.9583 133.104 45.9375 132.688C44.9167 132.271 44.0469 131.693 43.3281 130.953C42.6198 130.203 42.0729 129.333 41.6875 128.344C41.3125 127.344 41.125 126.271 41.125 125.125V124.5C41.125 123.198 41.3125 122.016 41.6875 120.953C42.0625 119.88 42.5938 118.958 43.2812 118.188C43.9688 117.417 44.7917 116.823 45.75 116.406C46.7083 115.99 47.7656 115.781 48.9219 115.781C50.1198 115.781 51.1771 115.984 52.0938 116.391C53.0104 116.786 53.776 117.349 54.3906 118.078C55.0052 118.807 55.4688 119.682 55.7812 120.703C56.0938 121.714 56.25 122.833 56.25 124.062V125.797H43V122.953H52.1875V122.641C52.1667 121.984 52.0417 121.385 51.8125 120.844C51.5833 120.292 51.2292 119.854 50.75 119.531C50.2708 119.198 49.651 119.031 48.8906 119.031C48.276 119.031 47.7396 119.167 47.2812 119.438C46.8333 119.698 46.4583 120.073 46.1562 120.562C45.8646 121.042 45.6458 121.615 45.5 122.281C45.3542 122.948 45.2812 123.688 45.2812 124.5V125.125C45.2812 125.833 45.375 126.49 45.5625 127.094C45.7604 127.698 46.0469 128.224 46.4219 128.672C46.8073 129.109 47.2656 129.453 47.7969 129.703C48.3385 129.943 48.9531 130.062 49.6406 130.062C50.5052 130.062 51.2865 129.896 51.9844 129.562C52.6927 129.219 53.3073 128.714 53.8281 128.047L55.9062 130.203C55.5521 130.724 55.0729 131.224 54.4688 131.703C53.875 132.182 53.1562 132.573 52.3125 132.875C51.4688 133.167 50.4948 133.312 49.3906 133.312Z" fill="#2C2C2C"/>
<path d="M69.9375 110.25V133H65.6562V110.25H69.9375ZM77 110.25V113.641H58.6719V110.25H77ZM86.6406 129.406V121.609C86.6406 121.036 86.5417 120.542 86.3438 120.125C86.1458 119.708 85.8438 119.385 85.4375 119.156C85.0312 118.927 84.5156 118.812 83.8906 118.812C83.3385 118.812 82.8542 118.906 82.4375 119.094C82.0312 119.281 81.7188 119.547 81.5 119.891C81.2812 120.224 81.1719 120.609 81.1719 121.047H77.0312C77.0312 120.349 77.1979 119.688 77.5312 119.062C77.8646 118.427 78.3385 117.865 78.9531 117.375C79.5781 116.875 80.3229 116.484 81.1875 116.203C82.0625 115.922 83.0417 115.781 84.125 115.781C85.4062 115.781 86.5469 116 87.5469 116.438C88.5573 116.865 89.349 117.51 89.9219 118.375C90.5052 119.24 90.7969 120.328 90.7969 121.641V129.016C90.7969 129.859 90.849 130.583 90.9531 131.188C91.0677 131.781 91.2344 132.297 91.4531 132.734V133H87.25C87.0521 132.573 86.901 132.031 86.7969 131.375C86.6927 130.708 86.6406 130.052 86.6406 129.406ZM87.2188 122.703L87.25 125.156H84.6406C83.9948 125.156 83.4271 125.224 82.9375 125.359C82.4479 125.484 82.0469 125.672 81.7344 125.922C81.4219 126.161 81.1875 126.453 81.0312 126.797C80.875 127.13 80.7969 127.51 80.7969 127.938C80.7969 128.354 80.8906 128.729 81.0781 129.062C81.276 129.396 81.5573 129.661 81.9219 129.859C82.2969 130.047 82.7344 130.141 83.2344 130.141C83.9635 130.141 84.599 129.995 85.1406 129.703C85.6823 129.401 86.1042 129.036 86.4062 128.609C86.7083 128.182 86.8698 127.776 86.8906 127.391L88.0781 129.172C87.9323 129.599 87.7135 130.052 87.4219 130.531C87.1302 131.01 86.7552 131.458 86.2969 131.875C85.8385 132.292 85.2865 132.635 84.6406 132.906C83.9948 133.177 83.2448 133.312 82.3906 133.312C81.2969 133.312 80.3177 133.094 79.4531 132.656C78.5885 132.219 77.9062 131.62 77.4062 130.859C76.9062 130.099 76.6562 129.234 76.6562 128.266C76.6562 127.37 76.8229 126.578 77.1562 125.891C77.4896 125.203 77.9844 124.625 78.6406 124.156C79.2969 123.677 80.1094 123.318 81.0781 123.078C82.0573 122.828 83.1771 122.703 84.4375 122.703H87.2188ZM98.6406 108.984V133H94.5156V108.984H98.6406ZM109.234 116.094L101.875 124.359L97.8906 128.406L96.5781 125.203L99.6562 121.328L104.25 116.094H109.234ZM105.016 133L99.7812 125.125L102.531 122.453L109.797 133H105.016ZM118.703 133.312C117.422 133.312 116.271 133.104 115.25 132.688C114.229 132.271 113.359 131.693 112.641 130.953C111.932 130.203 111.385 129.333 111 128.344C110.625 127.344 110.438 126.271 110.438 125.125V124.5C110.438 123.198 110.625 122.016 111 120.953C111.375 119.88 111.906 118.958 112.594 118.188C113.281 117.417 114.104 116.823 115.062 116.406C116.021 115.99 117.078 115.781 118.234 115.781C119.432 115.781 120.49 115.984 121.406 116.391C122.323 116.786 123.089 117.349 123.703 118.078C124.318 118.807 124.781 119.682 125.094 120.703C125.406 121.714 125.562 122.833 125.562 124.062V125.797H112.312V122.953H121.5V122.641C121.479 121.984 121.354 121.385 121.125 120.844C120.896 120.292 120.542 119.854 120.062 119.531C119.583 119.198 118.964 119.031 118.203 119.031C117.589 119.031 117.052 119.167 116.594 119.438C116.146 119.698 115.771 120.073 115.469 120.562C115.177 121.042 114.958 121.615 114.812 122.281C114.667 122.948 114.594 123.688 114.594 124.5V125.125C114.594 125.833 114.688 126.49 114.875 127.094C115.073 127.698 115.359 128.224 115.734 128.672C116.12 129.109 116.578 129.453 117.109 129.703C117.651 129.943 118.266 130.062 118.953 130.062C119.818 130.062 120.599 129.896 121.297 129.562C122.005 129.219 122.62 128.714 123.141 128.047L125.219 130.203C124.865 130.724 124.385 131.224 123.781 131.703C123.188 132.182 122.469 132.573 121.625 132.875C120.781 133.167 119.807 133.312 118.703 133.312Z" fill="#2C2C2C"/>
</svg>
